<svg id="Layer_1" data-name="Layer 1" xmlns="http://www.w3.org/2000/svg" viewBox="0 0 276.41 578">
    <defs>
        <style>
            .cls-1 {
                fill: black;
            }
        </style>
    </defs>
    <title>bungee-design</title>
    <path class="cls-1" d="M125.79,249.16A62.9,62.9,0,1,1,16.66,206.54c1.27-1.38,2.58-2.68,3.95-3.92a62.88,62.88,0,0,1,84.57,0c1.37,1.24,2.71,2.58,3.95,3.95A62.43,62.43,0,0,1,125.79,249.16Z" />
    <path class="cls-1" d="M125.79,156a62.57,62.57,0,0,1-16.63,42.62,68.45,68.45,0,0,0-92.5,0,62.86,62.86,0,0,1,0-85.25c1.24-1.37,2.58-2.68,3.95-4a62.91,62.91,0,0,1,84.57,0c1.37,1.27,2.71,2.58,4,4A62.63,62.63,0,0,1,125.79,156Z" />
    <circle class="cls-1" cx="138.21" cy="439.79" r="138.2" />
    <path class="cls-1" d="M125.79,62.91a62.48,62.48,0,0,1-16.66,42.6,68.42,68.42,0,0,0-92.47,0A62.9,62.9,0,1,1,125.79,62.91Z" />
    <rect class="cls-1" y="249.17" width="125.8" height="190.62" />
    <circle class="cls-1" cx="138.21" cy="439.79" r="138.2" />
    <rect class="cls-1" y="249.17" width="125.79" height="190.62" />
</svg>