<?xml version="1.0" standalone="no"?>
<!DOCTYPE svg PUBLIC "-//W3C//DTD SVG 20010904//EN"
 "http://www.w3.org/TR/2001/REC-SVG-20010904/DTD/svg10.dtd">
<svg version="1.0" xmlns="http://www.w3.org/2000/svg"
 width="400.000000pt" height="400.000000pt" viewBox="0 0 400.000000 400.000000"
 preserveAspectRatio="xMidYMid meet">
<metadata>
Created by potrace 1.11, written by Peter Selinger 2001-2013
</metadata>
<g transform="translate(0.000000,400.000000) scale(0.100000,-0.100000)"
fill="#000000" stroke="none">
<path d="M1830 3289 c-146 -18 -205 -32 -340 -77 -378 -129 -696 -408 -875
-767 -81 -164 -119 -275 -150 -450 -25 -143 -23 -394 5 -535 6 -30 13 -65 16
-78 13 -63 79 -243 119 -324 39 -79 118 -212 135 -228 3 -3 17 -21 31 -40 15
-19 40 -50 56 -69 l30 -34 65 55 c231 196 552 338 843 374 28 4 53 8 57 11 10
6 304 4 348 -2 237 -32 403 -80 575 -166 113 -57 264 -155 344 -224 51 -44 54
-45 70 -28 264 293 404 674 395 1076 -3 129 -14 206 -49 348 -91 367 -321 690
-641 904 -253 170 -526 255 -829 259 -82 1 -175 -1 -205 -5z"/>
</g>
</svg>
