<?xml version="1.0" encoding="utf-8"?>
<!-- Generator: Adobe Illustrator 23.0.1, SVG Export Plug-In . SVG Version: 6.00 Build 0)  -->
<svg version="1.1" id="Layer_1" xmlns="http://www.w3.org/2000/svg" xmlns:xlink="http://www.w3.org/1999/xlink" x="0px" y="0px"
	 viewBox="0 0 1920 1080" style="enable-background:new 0 0 1920 1080;" xml:space="preserve">
<style type="text/css">
	.st0{fill:#1D0C33;}
	.st1{fill:#EAEFF3;}
	.st2{fill:#393857;}
	.st3{fill:url(#SVGID_1_);}
	.st4{opacity:6.000000e-02;}
	.st5{fill:#A19EEB;}
	.st6{fill:#FFFFFF;}
	.st7{font-family:'MuseoSansDisplay-Light';}
	.st8{font-size:22.7754px;}
	.st9{letter-spacing:5;}
	.st10{font-family:'Moon-Light';}
	.st11{font-size:33.3075px;}
	.st12{letter-spacing:8;}
	.st13{font-family:'Moon-Bold';}
	.st14{fill:url(#SVGID_2_);}
	.st15{font-size:55.2418px;}
	.st16{letter-spacing:13;}
	.st17{font-size:35.9216px;}
	.st18{font-size:20.3856px;}
	.st19{opacity:7.000000e-02;fill:#FFFFFF;}
	.st20{fill:url(#SVGID_3_);}
	.st21{opacity:0.28;fill:#FFFFFF;}
	.st22{font-size:12.9428px;}
	.st23{font-size:33.0086px;}
	.st24{fill:#35AA86;}
	.st25{fill:#533C9B;}
	.st26{font-size:18.7264px;}
	.st27{fill:none;stroke:#FFFFFF;stroke-width:0.75;stroke-linecap:round;stroke-miterlimit:10;}
	.st28{font-size:19px;}
	.st29{opacity:0.42;fill:none;stroke:#FFFFFF;stroke-width:0.75;stroke-linecap:round;stroke-miterlimit:10;}
	.st30{opacity:0.43;}
	.st31{fill:none;stroke:#FFFFFF;stroke-width:2;stroke-linecap:round;stroke-linejoin:round;stroke-miterlimit:10;}
	.st32{fill:#5F45A4;stroke:#FFFFFF;stroke-width:2;stroke-linecap:round;stroke-linejoin:round;stroke-miterlimit:10;}
</style>
<rect class="st0" width="1920" height="1080"/>
<g>
	<path class="st1" d="M1768.6,938.2H151.4c-4.1,0-7.4-3.3-7.4-7.4V149.2c0-4.1,3.3-7.4,7.4-7.4h1617.1c4.1,0,7.4,3.3,7.4,7.4v781.6
		C1776,934.9,1772.6,938.2,1768.6,938.2z"/>
</g>
<g>
	<path class="st2" d="M270.1,938.2H151.8c-4.2,0-7.7-3.5-7.7-7.7v-785c0-2.1,1.7-3.8,3.8-3.8h122.3V938.2z"/>
</g>
<g>
	<linearGradient id="SVGID_1_" gradientUnits="userSpaceOnUse" x1="270.12" y1="295.185" x2="1775.96" y2="295.185">
		<stop  offset="0" style="stop-color:#A972CF"/>
		<stop  offset="1" style="stop-color:#533C9B"/>
	</linearGradient>
	<path class="st3" d="M1776,148.2v300.4H270.1V141.8h1499.4C1773.1,141.8,1776,144.6,1776,148.2z"/>
</g>
<g class="st4">
	<path class="st5" d="M1232,141.8c-36.7,35.4-78.6,65.4-124.5,88.8c-70.7,36.1-150.9,56.5-235.7,56.5
		c-139.9,0-266.8-55.3-360.2-145.3H1232z"/>
</g>
<g class="st4">
	<path class="st5" d="M1776,148.2v76.6c-90.8,77.8-208.7,124.8-337.6,124.8c-125.7,0-241-44.7-330.8-119
		c-31.6-26.1-60.1-56-84.7-88.8h746.7C1773.1,141.8,1776,144.6,1776,148.2z"/>
</g>
<g>
	<path class="st6" d="M291.3,161.5h15c9.3,0,13.8,4.6,13.8,12.8c0,5-2.6,9.2-6.8,10.8c5.1,1.4,8.8,6,8.8,12.3c0,8.7-5.1,14-15.3,14
		h-15.6V161.5z M308.3,184.1c7.3,0,9.9-4.6,9.9-9.9c0-6.8-3.5-10.8-11.9-10.8h-13.1v20.7H308.3z M306.8,209.5
		c9.5,0,13.4-4.6,13.4-12.1c0-6.2-3.7-11.3-11.4-11.3h-15.6v23.4H306.8z"/>
	<path class="st6" d="M372.4,204.6c9.7-9.7,9.9-25.5-0.3-35.7c-10.5-10.5-26.5-10.5-36.2-0.8c-9.8,9.8-9.7,25.8,0.7,36.2
		C346.9,214.6,362.6,214.4,372.4,204.6z M334.8,172.3c0.7-1,1.5-1.9,2.4-2.8c9-9,23.7-8.9,33.5,0.8c9.5,9.5,9.3,24,0.3,33
		c-0.9,0.9-1.8,1.7-2.8,2.4c-9,6.6-21.7,5.9-30.2-2.7C329.2,194.3,328.3,181.4,334.8,172.3z"/>
	<path class="st6" d="M389.1,161.5h1.9v48h24.4v1.9h-26.3V161.5z"/>
	<path class="st6" d="M427.3,163.4h-19v-1.9h39.9v1.9h-19v48h-1.9V163.4z"/>
	<path class="st6" d="M368.2,205.7c2.1-0.9,4.1-2.1,5.7-3.8c8.1-8.1,6.7-22.5-3-32.2c-9.7-9.7-24.2-11.1-32.2-3
		c-1.7,1.7-2.9,3.6-3.8,5.7c-3.3,8.1-0.9,18.8,6.8,26.5C349.4,206.6,360.1,209,368.2,205.7z M340.9,167.6c-3.2,7.8-0.8,18,6.6,25.4
		c7.4,7.4,17.7,9.8,25.5,6.6c-8.7,6.3-20.8,5.7-29-2.5C335.5,188.7,334.6,176.3,340.9,167.6z"/>
</g>
<path class="st6" d="M1715.1,938.2H344.2V367.8c0-6.7,5.5-12.2,12.2-12.2h1346.4c6.7,0,12.2,5.5,12.2,12.2V938.2z"/>
<g>
	<path class="st6" d="M216.2,180.2h-19.3c-0.8,0-1.5-0.7-1.5-1.5l0,0c0-0.8,0.7-1.5,1.5-1.5h19.3c0.8,0,1.5,0.7,1.5,1.5l0,0
		C217.8,179.5,217.1,180.2,216.2,180.2z"/>
	<path class="st6" d="M216.2,198.1h-19.3c-0.8,0-1.5-0.7-1.5-1.5l0,0c0-0.8,0.7-1.5,1.5-1.5h19.3c0.8,0,1.5,0.7,1.5,1.5l0,0
		C217.8,197.4,217.1,198.1,216.2,198.1z"/>
	<path class="st6" d="M216.2,189.2h-28.3c-0.8,0-1.5-0.7-1.5-1.5l0,0c0-0.8,0.7-1.5,1.5-1.5h28.3c0.8,0,1.5,0.7,1.5,1.5l0,0
		C217.8,188.5,217.1,189.2,216.2,189.2z"/>
</g>
<g>
	<g>
		<path class="st6" d="M216.1,377.8h-23.5v-23.5c0-0.5-0.4-0.9-0.9-0.9s-0.9,0.4-0.9,0.9v24.4c0,0.5,0.4,0.9,0.9,0.9h24.4
			c0.5,0,0.9-0.4,0.9-0.9S216.6,377.8,216.1,377.8z"/>
		<path class="st6" d="M201.6,374.3v-13.3c0-0.5-0.4-0.9-0.9-0.9c-0.5,0-0.9,0.4-0.9,0.9v13.3c0,0.5,0.4,0.9,0.9,0.9
			C201.2,375.2,201.6,374.8,201.6,374.3z"/>
		<path class="st6" d="M197.1,374.3v-13.3c0-0.5-0.4-0.9-0.9-0.9c-0.5,0-0.9,0.4-0.9,0.9v13.3c0,0.5,0.4,0.9,0.9,0.9
			C196.7,375.2,197.1,374.8,197.1,374.3z"/>
		<path class="st6" d="M210.5,374.3v-13.3c0-0.5-0.4-0.9-0.9-0.9s-0.9,0.4-0.9,0.9v13.3c0,0.5,0.4,0.9,0.9,0.9
			S210.5,374.8,210.5,374.3z"/>
		<path class="st6" d="M215,374.3v-6.7c0-0.5-0.4-0.9-0.9-0.9c-0.5,0-0.9,0.4-0.9,0.9v6.7c0,0.5,0.4,0.9,0.9,0.9
			C214.6,375.2,215,374.8,215,374.3z"/>
		<path class="st6" d="M206.1,374.3v-6.7c0-0.5-0.4-0.9-0.9-0.9c-0.5,0-0.9,0.4-0.9,0.9v6.7c0,0.5,0.4,0.9,0.9,0.9
			C205.7,375.2,206.1,374.8,206.1,374.3z"/>
	</g>
</g>
<g>
	<g>
		<path class="st6" d="M191.7,423.9c-0.5,0-0.9,0.4-0.9,0.9v3.6c0,0.5,0.4,0.9,0.9,0.9h1.7c0.2,1,0.6,1.9,1.2,2.8l-1.2,1.2
			c-0.4,0.4-0.4,0.9,0,1.3l2.6,2.6c0.4,0.4,0.9,0.4,1.3,0l1.2-1.2c0.9,0.5,1.8,0.9,2.8,1.1v1.7c0,0.5,0.4,0.9,0.9,0.9h3.6
			c0.5,0,0.9-0.4,0.9-0.9v-1.7c1-0.2,1.9-0.6,2.7-1.1l1.2,1.2c0.4,0.4,0.9,0.4,1.3,0l2.6-2.6c0.4-0.4,0.4-0.9,0-1.3l-1.2-1.2
			c0.5-0.9,0.9-1.8,1.1-2.7h1.7c0.5,0,0.9-0.4,0.9-0.9v-3.6c0-0.5-0.4-0.9-0.9-0.9h-1.7c-0.2-1-0.6-1.9-1.1-2.7l1.2-1.2
			c0.4-0.4,0.4-0.9,0-1.3l-2.6-2.5c-0.4-0.4-0.9-0.4-1.3,0l-1.2,1.2c-0.9-0.5-1.8-0.9-2.8-1.2v-1.7c0-0.5-0.4-0.9-0.9-0.9h-3.6
			c-0.5,0-0.9,0.4-0.9,0.9v1.7c-1,0.2-1.9,0.6-2.8,1.1l-1.2-1.2c-0.4-0.4-0.9-0.4-1.3,0l-2.6,2.6c-0.4,0.4-0.4,0.9,0,1.3l1.2,1.2
			c-0.5,0.9-0.9,1.8-1.2,2.8H191.7z M195,425c0.2-1.3,0.7-2.4,1.4-3.5c0.2-0.4,0.2-0.9-0.1-1.2l-1-1.1l1.2-1.2l1.1,1.1
			c0.3,0.3,0.8,0.4,1.2,0.1c1-0.7,2.2-1.2,3.5-1.4c0.4-0.1,0.8-0.5,0.8-0.9v-1.5h1.8v1.5c0,0.5,0.3,0.8,0.7,0.9
			c1.2,0.2,2.4,0.7,3.4,1.4c0.4,0.2,0.9,0.2,1.2-0.1l1.1-1.1l1.2,1.2l-1.1,1.1c-0.3,0.3-0.4,0.8-0.1,1.2c0.7,1,1.2,2.2,1.4,3.4
			c0.1,0.4,0.5,0.8,0.9,0.8h1.5v1.8h-1.5c-0.5,0-0.8,0.3-0.9,0.7c-0.2,1.2-0.7,2.4-1.4,3.4c-0.2,0.4-0.2,0.9,0.1,1.2l1.1,1.1
			l-1.2,1.2l-1.1-1.1c-0.3-0.3-0.8-0.4-1.2-0.1c-1,0.7-2.2,1.2-3.4,1.4c-0.4,0.1-0.7,0.5-0.7,0.9v1.5H203v-1.5
			c0-0.5-0.3-0.8-0.8-0.9c-1.3-0.2-2.4-0.7-3.5-1.4c-0.4-0.2-0.9-0.2-1.2,0.1l-1.1,1.1l-1.2-1.2l1.1-1.1c0.3-0.3,0.4-0.8,0.1-1.2
			c-0.7-1-1.2-2.2-1.4-3.5c-0.1-0.4-0.5-0.7-0.9-0.7h-1.5v-1.8h1.5C194.6,425.7,194.9,425.4,195,425z"/>
		<path class="st6" d="M203.9,433.1c3.5,0,6.3-2.8,6.3-6.4s-2.8-6.4-6.3-6.4s-6.3,2.8-6.3,6.4S200.4,433.1,203.9,433.1z
			 M203.9,422.2c2.5,0,4.5,2,4.5,4.5c0,2.5-2,4.5-4.5,4.5s-4.5-2-4.5-4.5C199.4,424.3,201.4,422.2,203.9,422.2z"/>
	</g>
</g>
<g>
	<g>
		<path class="st6" d="M203.8,483.8c4,0,7.3-3.3,7.3-7.3s-3.3-7.3-7.3-7.3s-7.3,3.3-7.3,7.3S199.8,483.8,203.8,483.8z M203.8,471
			c3,0,5.4,2.4,5.4,5.4s-2.4,5.4-5.4,5.4s-5.4-2.4-5.4-5.4S200.8,471,203.8,471z"/>
		<path class="st6" d="M191.1,495.2h25.4c0.5,0,1-0.4,1-1c0-5.1-4.1-9.2-9.2-9.2h-9c-5.1,0-9.2,4.1-9.2,9.2
			C190.2,494.8,190.6,495.2,191.1,495.2z M199.3,487h9c3.7,0,6.7,2.7,7.2,6.3h-23.4C192.6,489.7,195.7,487,199.3,487z"/>
	</g>
</g>
<text transform="matrix(1 0 0 1 288.7626 238.993)" class="st6 st7 st8 st9">RAFFLES</text>
<text transform="matrix(1 0 0 1 379.7061 413.3433)"><tspan x="0" y="0" class="st2 st10 st11 st12">SHOP: </tspan><tspan x="151.4" y="0" class="st2 st13 st11 st12">Notre</tspan><tspan x="306.4" y="0" class="st2 st10 st11 st12"> Product: </tspan><tspan x="567.2" y="0" class="st2 st13 st11 st12">AJ1</tspan></text>
<text transform="matrix(1 0 0 1 394.904 313.884)" class="st6 st7 st11">Raffle Selection</text>
<text transform="matrix(1 0 0 1 379.7061 669.3433)" class="st2 st7 st11 st12">LOG</text>
<g>
	
		<image style="overflow:visible;opacity:8.000000e-02;" width="703" height="176" xlink:href="455F2B20.png"  transform="matrix(1 0 0 1 361 437)">
	</image>
	<g>
		<path class="st6" d="M1041.5,594.5H383.9c-2.3,0-4.2-1.9-4.2-4.2V459.9c0-2.3,1.9-4.2,4.2-4.2h657.5c2.3,0,4.2,1.9,4.2,4.2v130.4
			C1045.7,592.6,1043.8,594.5,1041.5,594.5z"/>
	</g>
</g>
<g>
	
		<image style="overflow:visible;opacity:8.000000e-02;" width="629" height="176" xlink:href="455F2B21.png"  transform="matrix(1 0 0 1 1061 437)">
	</image>
	<g>
		<path class="st6" d="M1668,594.5h-584.3c-2.2,0-4-1.8-4-4V459.6c0-2.2,1.8-4,4-4H1668c2.2,0,4,1.8,4,4v130.9
			C1672,592.7,1670.2,594.5,1668,594.5z"/>
	</g>
</g>
<g>
	
		<image style="overflow:visible;opacity:8.000000e-02;" width="1228" height="73" xlink:href="455F2B27.png"  transform="matrix(1 0 0 1 364 682)">
	</image>
	<g>
		<path class="st6" d="M1571.1,737H385.7c-1.6,0-2.9-1.3-2.9-2.9v-30.7c0-1.6,1.3-2.9,2.9-2.9h1185.4c1.6,0,2.9,1.3,2.9,2.9v30.7
			C1574,735.7,1572.7,737,1571.1,737z"/>
	</g>
</g>
<linearGradient id="SVGID_2_" gradientUnits="userSpaceOnUse" x1="653" y1="525.085" x2="1045.6699" y2="525.085">
	<stop  offset="0" style="stop-color:#F87C7F"/>
	<stop  offset="1" style="stop-color:#AA72D1"/>
</linearGradient>
<path class="st14" d="M1045.7,458.9v132.4c0,1.8-1.5,3.2-3.2,3.2H656.2c-1.8,0-3.2-1.5-3.2-3.2V458.9c0-1.8,1.5-3.2,3.2-3.2h386.2
	C1044.2,455.7,1045.7,457.1,1045.7,458.9z"/>
<text transform="matrix(1 0 0 1 402.7061 562.7216)" class="st2 st13 st15 st16">2,500</text>
<text transform="matrix(1 0 0 1 1529.6642 536.4189)" class="st2 st13 st17 st12">20:10</text>
<text transform="matrix(1 0 0 1 402.7051 502.6464)" class="st2 st10 st18">successful entries</text>
<rect x="687" y="455.7" class="st19" width="1.5" height="138.8"/>
<rect x="717" y="455.7" class="st19" width="1.5" height="138.8"/>
<rect x="737" y="455.7" class="st19" width="1.5" height="138.8"/>
<rect x="767" y="455.7" class="st19" width="1.5" height="138.8"/>
<rect x="797" y="455.7" class="st19" width="1.5" height="138.8"/>
<rect x="827" y="455.7" class="st19" width="1.5" height="138.8"/>
<rect x="857" y="455.7" class="st19" width="1.5" height="138.8"/>
<rect x="887" y="455.7" class="st19" width="1.5" height="138.8"/>
<rect x="917" y="455.7" class="st19" width="1.5" height="138.8"/>
<rect x="947" y="455.7" class="st19" width="1.5" height="138.8"/>
<rect x="977" y="455.7" class="st19" width="1.5" height="138.8"/>
<rect x="1007" y="455.7" class="st19" width="1.5" height="138.8"/>
<linearGradient id="SVGID_3_" gradientUnits="userSpaceOnUse" x1="849.335" y1="594.5" x2="849.335" y2="485.0996">
	<stop  offset="0" style="stop-color:#FFFFFF;stop-opacity:0"/>
	<stop  offset="1" style="stop-color:#FFFFFF"/>
</linearGradient>
<path class="st20" d="M1045.7,550.5v40.8c0,1.8-1.5,3.2-3.2,3.2H656.2c-1.8,0-3.2-1.5-3.2-3.2c0,0,45.5,3.1,64.8-40.3
	c19.3-43.3,18.7-65.9,36.4-65.9c18,0,24.7,60,44.3,60c18.9,0,12-14.1,24.8-14.1c12.9,0,10.3,44.7,26,45
	c15.7,0.3,23.9-57.7,62.9-57.7c38.3,0,29.5,59.4,58.1,60c28.7,0.7,25.2-27.2,56-27.7C1044,550.4,1045.7,550.5,1045.7,550.5z"/>
<circle class="st21" cx="752.8" cy="485.1" r="11"/>
<g>
	
		<image style="overflow:visible;opacity:8.000000e-02;" width="46" height="46" xlink:href="455F2B22.png"  transform="matrix(1 0 0 1 730 462)">
	</image>
	<g>
		<circle class="st2" cx="752.8" cy="485.1" r="4.7"/>
	</g>
</g>
<path class="st6" d="M733.7,492.8h-61.4c-1.8,0-3.3-1.5-3.3-3.3v-11c0-1.8,1.5-3.3,3.3-3.3h61.4c1.8,0,3.3,1.5,3.3,3.3v11
	C737,491.3,735.5,492.8,733.7,492.8z"/>
<text transform="matrix(1 0 0 1 678.9366 488.0214)" class="st2 st10 st22">270 eps</text>
<g>
	<g>
		<path class="st2" d="M1267.4,513.9h-146.5c-10.3,0-18.7-8.4-18.7-18.7v0c0-10.3,8.4-18.7,18.7-18.7h146.5
			c10.3,0,18.7,8.4,18.7,18.7v0C1286.2,505.4,1277.7,513.9,1267.4,513.9z"/>
	</g>
	<text transform="matrix(1 0 0 1 1143.9674 505.9839)" class="st6 st10 st23">Start</text>
</g>
<g>
	<g>
		<path class="st2" d="M1481.4,513.9h-146.5c-10.3,0-18.7-8.4-18.7-18.7v0c0-10.3,8.4-18.7,18.7-18.7h146.5
			c10.3,0,18.7,8.4,18.7,18.7v0C1500.2,505.4,1491.7,513.9,1481.4,513.9z"/>
	</g>
	<text transform="matrix(1 0 0 1 1357.9674 505.9839)" class="st6 st10 st23">Pause</text>
</g>
<g>
	<g>
		<path class="st2" d="M1481.4,573.9h-146.5c-10.3,0-18.7-8.4-18.7-18.7v0c0-10.3,8.4-18.7,18.7-18.7h146.5
			c10.3,0,18.7,8.4,18.7,18.7v0C1500.2,565.5,1491.7,573.9,1481.4,573.9z"/>
	</g>
	<text transform="matrix(1 0 0 1 1324.4343 565.99)" class="st6 st10 st23">schedule</text>
</g>
<g>
	<g>
		<path class="st2" d="M1267.4,574.7h-146.5c-10.3,0-18.7-8.4-18.7-18.7v0c0-10.3,8.4-18.7,18.7-18.7h146.5
			c10.3,0,18.7,8.4,18.7,18.7v0C1286.2,566.3,1277.7,574.7,1267.4,574.7z"/>
	</g>
	<text transform="matrix(1 0 0 1 1153.9352 566.8444)" class="st6 st10 st23">STOP</text>
</g>
<g>
	<path class="st2" d="M538,675.6h-30.5c-10.3,0-18.7-8.4-18.7-18.7v0c0-10.3,8.4-18.7,18.7-18.7H538c10.3,0,18.7,8.4,18.7,18.7v0
		C556.7,667.2,548.3,675.6,538,675.6z"/>
</g>
<text transform="matrix(1 0 0 1 398.7051 725.1464)"><tspan x="0" y="0" class="st24 st13 st18">ENTERED:</tspan><tspan x="88.4" y="0" class="st6 st13 st18"> </tspan><tspan x="92.8" y="0" class="st2 st10 st18">NOTRE (AJ1) / Jamesg007@mailservice.com / james GATE / 07395395653                    </tspan><tspan x="861.9" y="0" class="st2 st13 st18">Date &amp; time:</tspan><tspan x="986.4" y="0" class="st2 st10 st18"> 20:10 - 15/08/2018 </tspan></text>
<g>
	
		<image style="overflow:visible;opacity:8.000000e-02;" width="1228" height="73" xlink:href="455F2B23.png"  transform="matrix(1 0 0 1 364 752.007)">
	</image>
	<g>
		<path class="st6" d="M1571.1,807H385.7c-1.6,0-2.9-1.3-2.9-2.9v-30.7c0-1.6,1.3-2.9,2.9-2.9h1185.4c1.6,0,2.9,1.3,2.9,2.9v30.7
			C1574,805.7,1572.7,807,1571.1,807z"/>
	</g>
</g>
<g>
	
		<image style="overflow:visible;opacity:8.000000e-02;" width="1228" height="74" xlink:href="455F2B2E.png"  transform="matrix(1 0 0 1 364 832.01)">
	</image>
	<g>
		<path class="st6" d="M1571.1,887H385.7c-1.6,0-2.9-1.3-2.9-2.9v-30.7c0-1.6,1.3-2.9,2.9-2.9h1185.4c1.6,0,2.9,1.3,2.9,2.9v30.7
			C1574,885.7,1572.7,887,1571.1,887z"/>
	</g>
</g>
<g>
	<path class="st6" d="M512.2,663.3c0.1,0.1,0.2,0.1,0.3,0.1c0.2,0,0.3-0.1,0.4-0.2c0.2-0.2,0.1-0.6-0.1-0.8
		c-0.4-0.3-0.9-0.7-1.3-1.1l-4-4l4.2-4.2c4-4,9.8-5.4,15.2-3.6c0.3,0.1,0.6-0.1,0.7-0.3c0.1-0.3-0.1-0.6-0.3-0.7
		c-5.7-1.9-12-0.5-16.3,3.8l-4.9,4.9l4.8,4.8C511.2,662.5,511.7,663,512.2,663.3z"/>
	<path class="st6" d="M533.4,652.4c-0.7-0.7-1.5-1.4-2.4-2c-0.2-0.2-0.6-0.1-0.8,0.1c-0.2,0.2-0.1,0.6,0.1,0.8
		c0.8,0.5,1.5,1.2,2.2,1.8l4,4l-4.2,4.2c-4,4-10.1,5.4-15.4,3.5c-0.3-0.1-0.6,0-0.7,0.3c-0.1,0.3,0,0.6,0.3,0.7
		c1.7,0.6,3.5,0.9,5.3,0.9c4.1,0,8.2-1.6,11.2-4.6l4.9-4.9L533.4,652.4z"/>
	<path class="st6" d="M522.6,663.5c-1.2,0-2.3-0.3-3.3-0.9c-0.3-0.2-0.6-0.1-0.7,0.2c-0.2,0.3-0.1,0.6,0.2,0.7
		c1.2,0.7,2.5,1.1,3.9,1.1c4.1,0,7.3-3.3,7.3-7.3c0-1.5-0.4-2.9-1.2-4.1c-0.2-0.2-0.5-0.3-0.8-0.1c-0.2,0.2-0.3,0.5-0.1,0.8
		c0.7,1,1.1,2.2,1.1,3.5C528.9,660.7,526.1,663.5,522.6,663.5z"/>
	<path class="st6" d="M522.6,651c1.1,0,2.2,0.3,3.2,0.9c0.3,0.2,0.6,0.1,0.7-0.2c0.2-0.3,0.1-0.6-0.2-0.7c-1.1-0.7-2.4-1-3.7-1
		c-4.1,0-7.3,3.3-7.3,7.3c0,1.1,0.3,2.2,0.7,3.2c0.1,0.2,0.3,0.3,0.5,0.3c0.1,0,0.2,0,0.2-0.1c0.3-0.1,0.4-0.5,0.2-0.7
		c-0.4-0.9-0.6-1.8-0.6-2.8C516.4,653.8,519.2,651,522.6,651z"/>
	<path class="st6" d="M535.8,643.8c-0.2-0.2-0.6-0.2-0.8,0l-25.3,25.3c-0.2,0.2-0.2,0.6,0,0.8c0.1,0.1,0.2,0.2,0.4,0.2
		c0.1,0,0.3-0.1,0.4-0.2l25.3-25.3C536,644.4,536,644,535.8,643.8z"/>
</g>
<text transform="matrix(1 0 0 1 398.7051 795.1534)"><tspan x="0" y="0" class="st24 st13 st18">ENTERED:</tspan><tspan x="88.4" y="0" class="st6 st13 st18"> </tspan><tspan x="92.8" y="0" class="st2 st10 st18">NOTRE (AJ1) / Phillyjk437@mailservice.com / dan port / 07293395658                      </tspan><tspan x="863" y="0" class="st2 st13 st18">Date &amp; time:</tspan><tspan x="987.4" y="0" class="st2 st10 st18"> 20:10 - 15/08/2018 </tspan></text>
<text transform="matrix(1 0 0 1 398.7051 875.1615)"><tspan x="0" y="0" class="st24 st13 st18">ENTERED:</tspan><tspan x="88.4" y="0" class="st6 st13 st18"> </tspan><tspan x="92.8" y="0" class="st2 st10 st18">NOTRE (AJ1) / ellie.hill95@mailservice.com / ellie hill/ 07495335620                        </tspan><tspan x="863" y="0" class="st2 st13 st18">Date &amp; time:</tspan><tspan x="987.4" y="0" class="st2 st10 st18"> 20:10 - 15/08/2018 </tspan></text>
<g>
	<path class="st25" d="M783.1,317.4H625.7c-2.3,0-4.1-1.8-4.1-4.1v-20c0-2.3,1.8-4.1,4.1-4.1h157.4c2.3,0,4.1,1.8,4.1,4.1v20
		C787.2,315.5,785.3,317.4,783.1,317.4z"/>
</g>
<text transform="matrix(1 0 0 1 628.6479 309.228)" class="st6 st7 st26">Select Shop</text>
<polyline class="st27" points="746.8,299.1 756.9,309.2 767.1,299.1 "/>
<g>
	<path class="st25" d="M933,317.4H805.3c-2,0-3.7-1.7-3.7-3.7v-20.8c0-2,1.7-3.7,3.7-3.7H933c2,0,3.7,1.7,3.7,3.7v20.8
		C936.7,315.7,935,317.4,933,317.4z"/>
</g>
<text transform="matrix(1 0 0 1 808.6659 309.228)" class="st6 st7 st26">Product</text>
<g>
	<path class="st25" d="M1285.3,317.4h-127.7c-2,0-3.7-1.7-3.7-3.7v-20.8c0-2,1.7-3.7,3.7-3.7h127.7c2,0,3.7,1.7,3.7,3.7v20.8
		C1289,315.7,1287.3,317.4,1285.3,317.4z"/>
</g>
<text transform="matrix(1 0 0 1 1161.0077 309.228)" class="st6 st7 st26">Create Task</text>
<text transform="matrix(1 0 0 1 962.2501 309.2281)"><tspan x="0" y="0" class="st6 st7 st26">2,500 </tspan><tspan x="50.6" y="0" class="st6 st7 st28">Entries OR</tspan></text>
<polyline class="st27" points="896.8,299.1 906.9,309.2 917.1,299.1 "/>
<polyline class="st27" points="1267.4,311.5 1276,302.8 1266.7,293.5 "/>
<g>
	<path class="st25" d="M1553.3,317.4h-127.7c-2,0-3.7-1.7-3.7-3.7v-20.8c0-2,1.7-3.7,3.7-3.7h127.7c2,0,3.7,1.7,3.7,3.7v20.8
		C1557,315.7,1555.4,317.4,1553.3,317.4z"/>
</g>
<text transform="matrix(1 0 0 1 1455.0367 309.228)" class="st6 st7 st26">TASK 1/1</text>
<polyline class="st29" points="1539.5,311.5 1548.1,302.8 1538.8,293.5 "/>
<polyline class="st29" points="1438.8,293.5 1430.1,302.1 1439.5,311.5 "/>
<rect x="961.3" y="314.9" class="st6" width="170.2" height="1.7"/>
<g class="st30">
	<g>
		<path class="st6" d="M1125.2,295.4c-3.9,0-6.5,3.2-8.8,6.1c-2,2.4-3.8,4.7-6.1,4.7c-2.3,0-3.8-2.4-3.8-4.1c0-1.6,1.6-3.9,4.1-3.9
			c2.4,0,3.7,1.9,3.7,2c0.4,0.6,1.2,0.8,1.9,0.4c0.6-0.4,0.8-1.2,0.5-1.9c-0.1-0.1-2.1-3.3-6-3.3c-4,0-6.8,3.5-6.8,6.6
			c0,3.2,2.7,6.8,6.5,6.8c3.5,0,5.9-2.9,8.2-5.7c2.1-2.6,4.1-5.1,6.7-5.1c1.6,0,2.6,0.5,3.2,1.6c0.5,1,0.5,2,0.5,2.4
			c0,0.2-0.1,1.3-0.6,2.3c-0.6,1.1-1.4,1.6-2.7,1.6c-2.5,0-3.8-1.6-4.3-2.2c-0.1-0.2-0.2-0.3-0.4-0.4c-0.6-0.5-1.4-0.4-1.9,0.1
			c-0.5,0.5-0.4,1.4,0.1,1.9c0,0,0.1,0.1,0.1,0.1c0.7,0.8,2.6,3.2,6.4,3.2c4.5,0,6-4.4,6-6.6c0-1.4-0.3-2.6-0.8-3.6
			C1130,297.1,1128.5,295.4,1125.2,295.4z"/>
	</g>
</g>
<path class="st31" d="M1737.1,163.7l-22,22 M1737.1,185.7l-22-22"/>
<path class="st31" d="M1637,163.7 M1641.6,174.7l-31.1,0"/>
<path class="st31" d="M1669.4,161h21.4v21.4h-21.4V161z"/>
<path class="st32" d="M1665.4,165.2h21.4v21.4h-21.4V165.2z"/>
</svg>
